PathFileType	4	(X/Y/Z)	Walk2.trc
DataRate	CameraRate	NumFrames	NumMarkers	Units	OrigDataRate	OrigDataStartFrame	OrigNumFrames
200.000000	200.000000	4	67	mm	200.000000	829	955
Frame#	Times		LBHD		LowerBodyModelVer		LWRR		RLFC		LElbow		RTH2		RToe		LACR1		RMT5		C7		RTB2		LCAR		LUA1		RTB3		RMT1		RTB4		LWRU		RMMAL		LToe		RCAR		RCAL		LTH3		RASI		RFA1		LASI		PELOrigin		LLFC		RElbow		RElbowM		LPSI		RTH3		LTB2		RPSI		LHJC		MidPelvis		OPelvis		RHJC		SACR		XPelvis		YPelvis		ZPelvis		LFHD		LMMAL		LCAL		RBHD		RUA1		LMT5		T10		STRN		RACR1		LTH2		RMFC		RLMAL		RKJC		LLMAL		RFHD		CLAV		LTH4		RWRR		LTB1		LTH1		LTB3		LTB4		RTB1		LMT1		RTH1		RTH4
			X1	Y1	Z1	X2	Y2	Z2	X3	Y3	Z3	X4	Y4	Z4	X5	Y5	Z5	X6	Y6	Z6	X7	Y7	Z7	X8	Y8	Z8	X9	Y9	Z9	X10	Y10	Z10	X11	Y11	Z11	X12	Y12	Z12	X13	Y13	Z13	X14	Y14	Z14	X15	Y15	Z15	X16	Y16	Z16	X17	Y17	Z17	X18	Y18	Z18	X19	Y19	Z19	X20	Y20	Z20	X21	Y21	Z21	X22	Y22	Z22	X23	Y23	Z23	X24	Y24	Z24	X25	Y25	Z25	X26	Y26	Z26	X27	Y27	Z27	X28	Y28	Z28	X29	Y29	Z29	X30	Y30	Z30	X31	Y31	Z31	X32	Y32	Z32	X33	Y33	Z33	X34	Y34	Z34	X35	Y35	Z35	X36	Y36	Z36	X37	Y37	Z37	X38	Y38	Z38	X39	Y39	Z39	X40	Y40	Z40	X41	Y41	Z41	X42	Y42	Z42	X43	Y43	Z43	X44	Y44	Z44	X45	Y45	Z45	X46	Y46	Z46	X47	Y47	Z47	X48	Y48	Z48	X49	Y49	Z49	X50	Y50	Z50	X51	Y51	Z51	X52	Y52	Z52	X53	Y53	Z53	X54	Y54	Z54	X55	Y55	Z55	X56	Y56	Z56	X57	Y57	Z57	X58	Y58	Z58	X59	Y59	Z59	X60	Y60	Z60	X61	Y61	Z61	X62	Y62	Z62	X63	Y63	Z63	X64	Y64	Z64	X65	Y65	Z65	X66	Y66	Z66	X67	Y67	Z67

829	4.145	346.78	1608.3	-12.988	9	2014	4	222.19	827.42	-224.99	316.13	510.75	181.13	235.74	1109.7	-217.29	385.42	655.52	165.44	378.23	23.615	141.36	393.05	1416.2	-114.04	280.21	23.536	183.16	313.55	1479.6	60.477	284.15	272.34	165.29	212.27	970.73	-224.24	313.99	1228	-186.23	254.24	188.93	89.703	322.88	25.955	101.16	286.87	271.86	89.784	288.32	792.37	-215.2	197.94	67.371	64.304	733.13	106.78	-32.468	492.57	816.33	334.35	112.37	37.044	85.875	459.38	593.15	-93.858	398.57	993.72	206.06	386.64	937.75	355.33	393.74	1029.5	-99.771	396.16	1011.6	53.147	462.63	533.5	-87.84	335.62	1091.4	360	289.98	1090.8	285.29	205.06	1043.3	25.632	319.59	558.1	186.7	535.98	330.46	-86.846	204.24	1048.7	94.657	305.82	940.21	-59.212	300.4	1028.8	56.646	396.16	1011.6	53.147	309.1	915.88	148.76	204.65	1046	60.145	474.84	997.47	50.251	410.53	1089.8	62.066	397.41	1002.3	132.6	526.8	1637.3	7.4581	570.1	93.816	4.0377	497.28	34.177	-25	354.7	1607.1	123.67	401.63	1249.8	303.99	673.2	59.918	-86.39	230.7	1225.7	69.689	422.21	1191.3	62.691	299.91	1373.4	215.72	485.22	703.93	-65.47	281.12	484.24	56.917	172.23	71.614	143.22	298.62	497.49	119.02	548.91	76.941	-75.871	530.8	1638.2	82.352	456.81	1400.3	48.062	431.07	682.84	-110.34	479.47	858.26	283.38	538.22	421.8	-12.335	401.29	770.79	-120.96	561.01	238.6	-20.642	548.56	330.05	-15.76	321.37	363.14	95.128	699.1	70.89	-9.5246	327.46	743.99	229.28	326.79	649.43	210.07
830	4.15	352.04	1607.5	-13.773	9	2014	4	225.52	827.05	-225.28	318.76	510.2	180.88	239.99	1109.3	-217.6	388.74	654.67	165.27	378.23	23.602	141.38	398.29	1415.4	-114.68	280.15	23.516	183.15	318.86	1479	59.832	285.48	271.9	165.1	216.06	970.39	-224.51	318.63	1227.4	-186.69	255.09	188.63	89.519	322.91	25.903	101.09	288.13	271.49	89.401	291.52	791.75	-215.56	198.09	67.408	64.242	747.84	111.26	-33.296	498.51	816.05	334.01	112.44	37.311	85.77	461.88	591.33	-94.725	403.33	993.25	205.59	392.43	937.35	355.1	398.95	1028.5	-100.04	401.14	1010.9	52.774	465.44	531.99	-88.409	341.25	1091	359.78	295.49	1090.3	285.11	210.17	1042.7	24.831	322.42	557.55	186.41	544	330.86	-87.607	209.09	1048.2	93.82	310.98	939.46	-59.502	305.39	1028.2	56.05	401.14	1010.9	52.774	313.95	915.46	148.32	209.63	1045.5	59.325	479.82	996.7	50.007	415.56	1089.1	61.598	402.28	1001.7	132.24	532.06	1636.6	6.6391	585.04	95	3.2626	513.64	33.586	-25.599	359.98	1606.4	122.88	407.21	1249.3	303.48	688.89	63.069	-87.168	235.87	1225.1	69.073	427.37	1190.5	62.523	305.32	1372.9	215.18	488.62	701.92	-66.43	283.76	483.79	56.644	172.38	71.776	143.06	301.26	496.99	118.76	564.22	77.595	-76.58	536.09	1637.5	81.53	462.09	1399.5	47.421	434.13	681.23	-111.04	485.28	857.96	283.05	544.18	422.29	-13.115	404.95	769.38	-121.59	572.05	239.66	-21.544	557.09	330.82	-16.619	323.21	362.34	95.028	714.64	74.734	-10.195	331.09	743.42	228.97	330.01	648.88	209.82
831	4.155	357.32	1606.8	-14.58	9	2014	4	228.95	826.66	-225.59	321.42	509.63	180.61	244.29	1108.9	-217.93	392.09	653.82	165.09	378.23	23.581	141.39	403.56	1414.5	-115.36	280.08	23.494	183.14	324.18	1478.3	59.155	286.83	271.46	164.91	219.93	970.03	-224.8	323.3	1226.7	-187.17	255.95	188.34	89.339	322.95	25.867	101.02	289.4	271.11	89.03	294.82	791.12	-215.93	198.24	67.457	64.175	761.95	115.78	-34.123	504.39	815.74	333.68	112.51	37.598	85.669	464.33	589.43	-95.62	408.09	992.78	205.09	398.18	936.93	354.84	404.19	1027.6	-100.3	406.14	1010.2	52.398	468.29	530.48	-88.989	346.85	1090.5	359.53	300.98	1089.7	284.89	215.32	1042.1	24.002	325.28	557	186.1	551.85	331.27	-88.353	213.97	1047.6	92.955	316.18	938.69	-59.795	310.39	1027.5	55.438	406.14	1010.2	52.398	318.84	915.03	147.87	214.65	1044.9	58.478	484.82	995.93	49.769	420.6	1088.4	61.124	407.16	1001.1	131.88	537.34	1635.9	5.8101	599.41	96.322	2.542	529.42	33.19	-26.156	365.27	1605.8	122.07	412.77	1248.8	302.94	703.94	66.321	-87.941	241.05	1224.5	68.422	432.54	1189.7	62.342	310.73	1372.3	214.61	492	699.81	-67.453	286.44	483.33	56.363	172.53	71.953	142.89	303.93	496.48	118.49	578.95	78.417	-77.237	541.37	1636.9	80.699	467.38	1398.8	46.756	437.14	679.53	-111.75	491.05	857.63	282.71	550.09	422.77	-13.895	408.57	767.88	-122.24	582.72	240.77	-22.403	565.4	331.61	-17.454	325.07	361.53	94.92	729.54	78.66	-10.924	334.75	742.85	228.63	333.27	648.32	209.56
832	4.16	362.6	1606	-15.408	9	2014	4	232.47	826.25	-225.9	324.11	509.07	180.35	248.64	1108.4	-218.28	395.49	652.95	164.89	378.23	23.552	141.39	408.84	1413.6	-116.05	280.01	23.468	183.12	329.51	1477.6	58.444	288.19	271.02	164.71	223.86	969.64	-225.1	328.01	1226.1	-187.68	256.83	188.06	89.162	322.98	25.848	100.96	290.69	270.73	88.672	298.22	790.48	-216.32	198.39	67.521	64.105	775.42	120.28	-34.958	510.22	815.41	333.34	112.6	37.907	85.575	466.78	587.46	-96.539	412.87	992.31	204.59	403.88	936.49	354.55	409.47	1026.6	-100.55	411.17	1009.5	52.018	471.23	528.98	-89.581	352.42	1090	359.23	306.45	1089.2	284.63	220.48	1041.5	23.148	328.17	556.44	185.78	559.55	331.68	-89.078	218.89	1047.1	92.064	321.44	937.92	-60.092	315.43	1026.9	54.812	411.17	1009.5	52.018	323.75	914.6	147.4	219.68	1044.3	57.606	489.85	995.17	49.537	425.65	1087.7	60.645	412.06	1000.5	131.51	542.62	1635.2	4.9701	613.17	97.735	1.886	544.54	32.951	-26.647	370.55	1605.1	121.25	418.3	1248.3	302.36	718.3	69.599	-88.703	246.24	1223.8	67.735	437.73	1189	62.147	316.14	1371.8	214.01	495.38	697.65	-68.527	289.15	482.85	56.076	172.68	72.15	142.73	306.63	495.96	118.21	593.06	79.355	-77.827	546.66	1636.2	79.857	472.68	1398	46.066	440.13	677.76	-112.48	496.79	857.27	282.37	555.94	423.21	-14.673	412.14	766.3	-122.9	593.02	241.9	-23.21	573.51	332.41	-18.259	326.95	360.71	94.795	743.76	82.597	-11.719	338.44	742.27	228.28	336.56	647.76	209.28
